<svg width="411" height="466" viewBox="0 0 411 466" fill="none" xmlns="http://www.w3.org/2000/svg">
<path d="M0 317C0 303.745 10.7452 293 24 293H85C98.2548 293 109 303.745 109 317V442C109 455.255 98.2548 466 85 466H24C10.7452 466 0 455.255 0 442V317Z" fill="white"/>
<path d="M302 359C302 345.745 312.745 335 326 335H387C400.255 335 411 345.745 411 359V442C411 455.255 400.255 466 387 466H326C312.745 466 302 455.255 302 442V359Z" fill="white"/>
<path d="M143 251C143 237.745 153.745 227 167 227H244C257.255 227 268 237.745 268 251V442C268 455.255 257.255 466 244 466H167C153.745 466 143 455.255 143 442V251Z" fill="white"/>
<path d="M59.5296 31.6144C52.0135 27.5296 49.2318 18.1253 53.3166 10.6091C57.4013 3.09299 66.8057 0.311299 74.3218 4.39604L89.8751 12.8487C97.3913 16.9334 100.173 26.3378 96.0882 33.854C92.0035 41.3701 82.5991 44.1518 75.083 40.067L59.5296 31.6144Z" fill="white"/>
<path d="M353.009 29.6144C360.525 25.5296 363.307 16.1253 359.222 8.60913C355.137 1.09299 345.733 -1.6887 338.217 2.39604L322.663 10.8487C315.147 14.9334 312.365 24.3378 316.45 31.854C320.535 39.3701 329.939 42.1518 337.455 38.067L353.009 29.6144Z" fill="white"/>
<path d="M47.0487 113.669C38.5248 114.391 31.0295 108.067 30.3074 99.5428C29.5854 91.019 35.9099 83.5236 44.4338 82.8016L62.0724 81.3074C70.5963 80.5853 78.0916 86.9099 78.8137 95.4337C79.5357 103.958 73.2111 111.453 64.6873 112.175L47.0487 113.669Z" fill="white"/>
<path d="M365.49 111.669C374.014 112.391 381.509 106.067 382.231 97.5428C382.953 89.019 376.628 81.5236 368.105 80.8016L350.466 79.3074C341.942 78.5853 334.447 84.9099 333.725 93.4337C333.003 101.958 339.327 109.453 347.851 110.175L365.49 111.669Z" fill="white"/>
<path d="M76.9516 192.683C70.0993 197.804 60.3931 196.401 55.2722 189.548C50.1513 182.696 51.5549 172.99 58.4072 167.869L72.5868 157.272C79.4391 152.151 89.1453 153.555 94.2662 160.407C99.3871 167.26 97.9835 176.966 91.1312 182.087L76.9516 192.683Z" fill="white"/>
<path d="M335.587 190.683C342.439 195.804 352.145 194.401 357.266 187.548C362.387 180.696 360.983 170.99 354.131 165.869L339.952 155.272C333.099 150.151 323.393 151.555 318.272 158.407C313.151 165.26 314.555 174.966 321.407 180.087L335.587 190.683Z" fill="white"/>
<path d="M214.594 11.8368L234.67 52.4618C236.066 55.2874 238.765 57.2452 241.888 57.6976L286.782 64.2126C294.646 65.3546 297.783 75.0029 292.095 80.539L259.61 112.161C257.353 114.36 256.32 117.53 256.855 120.634L264.522 165.286C265.866 173.106 257.646 179.068 250.613 175.379L210.461 154.299C207.669 152.834 204.331 152.834 201.539 154.299L161.387 175.379C154.354 179.072 146.134 173.106 147.478 165.286L155.145 120.634C155.68 117.53 154.647 114.36 152.39 112.161L119.905 80.539C114.217 74.9992 117.354 65.3509 125.218 64.2126L170.112 57.6976C173.235 57.2452 175.934 55.2874 177.33 52.4618L197.406 11.8368C200.919 4.72111 211.078 4.72111 214.594 11.8368Z" fill="white"/>
</svg>
